<svg xmlns="http://www.w3.org/2000/svg" height="800" width="1200" viewBox="-11.967645 -12.303125 103.71959 73.81875"><g fill-rule="evenodd"><path d="M79.7843 0v49.2125H0V0z" fill="#ec1c23"/><path d="M33.6493 4.5275C13.0821 8.8511.6796 22.2827 4.0929 32.4042c3.4132 10.1215 16.883 16.2546 39.4027 12.718 22.5196-3.5368 36.0933-18.895 32.048-28.998C71.4982 6.0214 54.2165.204 33.6493 4.5276z" fill="#fff"/><path d="M40.1446 30.9154c-.5831 1.0275-1.5172 1.693-2.7319 1.844-2.3862.2966-3.4492-2.3974-3.376-5.6917.0654-2.9373.7411-4.7593 2.5737-5.6849 1.6012-.8087 2.56-.2059 3.1574.9696l-.2338-5.312 3.0438-.5724.2362 15.0816-2.6177.5396zm-1.9018-7.965c.3298-.1523 1.2375.0184 1.3277.9519.0883.9117.151 3.0822.1892 4.67.0013.0582-.0031.1172-.0043.1768-.0248 1.211-1.2965 2.6341-2.2103.8968-.026-.0493-.062-.095-.0814-.148-.2985-.8141-.3251-1.9025-.307-2.804.0441-2.192.4142-3.4332 1.086-3.7436zm5.2872-2.6376l.2295 11.078 2.8841-.4261c-.0341-1.0676-.1485-3.8593.0241-6.0426.1224-1.5482.952-2.6696 2.4244-2.4803-.1145.51-.1885 1.0548-.2197 1.6288-.183 3.3549 1.7304 5.9946 4.4574 5.8552 2.727-.1393 4.3765-2.5137 4.4574-5.8552.0808-3.3415-1.826-6.0566-4.4574-5.8882-1.9723.1262-3.3894 1.4864-4.0526 3.5727l-.077-2.6222c-1.1472-.0111-2.1852.6333-2.9826 2.7203l-.1311-1.9993zm9.7997.0656c.7783 0 1.4094 1.6658 1.4094 3.72 0 2.054-.631 3.7199-1.4094 3.7199-.7782 0-1.4093-1.6658-1.4093-3.72 0-2.0541.631-3.72 1.4093-3.72zm4.9163-2.7531l3.048-.59.2295 11.1435-3.0153.426zm-.0983-4.0583l3.2436-.6614.0643 3.0764-3.2109.6287z" fill="#ec1c23"/><path d="M35.3274 5.6836C15.8836 9.4169 2.7542 22.0772 5.4586 31.9851 8.163 41.893 24.48 46.9183 43.8593 43.3478c19.3794-3.5704 33.33-15.9196 30.3773-26.098C71.284 7.0711 54.7712 1.9503 35.3274 5.6835zM17.4516 22.2012c-.1698.6795-2.095 10.3624-2.095 10.3624l4.4167-.9626zm50.1135-10.147l.9321-.2092c-6.369-5.2913-18.726-7.3167-32.5476-4.7183C17.72 10.5537 4.6212 21.7848 7.2384 31.3439c.4766 1.7409 1.3983 3.3153 2.6931 4.7072l4.6889-19.6822 5.889-1.1326 4.8999 16.5418-.257-.9222-.0611-7.204 2.503-.58.1222 1.5874c1.5171-3.1118 5.3292-3.1404 5.69-.0626l.1707 8.579-2.9303.6106-.2048-7.6307c-.0307-2.1129-2.3861-1.2091-2.205.427l.0288 7.631-2.029.358 1.8037 6.0894-5.4926 1.0759-1.6422-5.7192-6.342 1.2458-.4709 1.978c6.863 3.8452 17.881 5.0753 29.8141 2.8349 18.0745-3.3934 31.465-14.672 28.7112-24.2172-.4224-1.4641-1.1497-2.812-2.1437-4.0325l.2375 12.5986-2.5246.427-.0172-1.2221c-.5108 1.337-1.4792 2.09-2.907 2.0742-2.4856-.0274-3.1838-2.537-3.2397-5.9084-.056-3.3713 1.0785-5.452 3.4631-5.809 1.2035-.1802 1.899.363 2.3302 1.4155zm-.9803 5.7957c.4938.0002.958.3202 1.038 1.1368.0634.645.056 1.4762.1056 2.449.0397.7784.0453 1.8983-.0377 2.5068-.1578 1.1567-.591 1.3015-1.106 1.352-1.2634.1238-1.459-1.4384-1.392-3.834.0672-2.3957.4097-3.6112 1.392-3.6106z" fill="#ec1c23"/><path d="M17.4386 16.3053l-2.5398.3735-4.482 18.9738s7.0218-19.2726 7.0218-19.3473zm8.8137 7.5276l-.8978.189.0945 5.3156s.7797-5.4573.8033-5.5046zm1.8191.7088c.8033-.7482 1.764-1.4096 2.6933-1.8428-1.3843-.1502-2.4686 1.2346-2.6933 1.8428zm10.4423-3.0713c-1.8969.8298-3.2533 2.4068-4.2053 4.5596.1856-2.274 1.519-4.8458 4.2053-4.5596zm2.953-4.347l-1.5356.3308.0473 7.182zm3.284 3.3312l-.9923.189.1181 5.3628zm2.2988.5269c.2-.6851.5724-1.1562 1.2522-1.2285zm6.9236-2.387c-2.2992.8805-3.8274 2.435-4.7749 4.4973.5002-2.467 2.0208-4.5687 4.775-4.4973zm4.5436-.6542l1.0048-.335-.9135 5.7551zm-.1523-3.989l.944-.274-.883 1.6139zm3.9224 6.9234c.8648-2.0554 2.218-3.5002 4.0598-4.3346-.898-.3179-1.7476-.008-2.564.7327-.888 1.071-1.3408 2.287-1.4958 3.6019zm5.4945-8.5775l.1526 7.326 1.5263-7.5092z" fill="#f58d91"/></g></svg>